<svg xmlns="http://www.w3.org/2000/svg" viewBox="0 0 24 24" aria-hidden="true">
  <defs>
    <linearGradient id="igGrad" x1="0%" y1="0%" x2="100%" y2="100%">
      <stop offset="0%" stop-color="#feda75"/>
      <stop offset="25%" stop-color="#fa7e1e"/>
      <stop offset="50%" stop-color="#d62976"/>
      <stop offset="75%" stop-color="#962fbf"/>
      <stop offset="100%" stop-color="#4f5bd5"/>
    </linearGradient>
  </defs>
  <path fill="url(#igGrad)" d="M7 2h10a5 5 0 0 1 5 5v10a5 5 0 0 1-5 5H7a5 5 0 0 1-5-5V7a5 5 0 0 1 5-5zm5 6.2A4.8 4.8 0 1 0 16.8 13 4.8 4.8 0 0 0 12 8.2zm6.4-.9a1.1 1.1 0 1 1-1.1-1.1 1.1 1.1 0 0 1 1.1 1.1zM12 9.6A2.4 2.4 0 1 1 9.6 12 2.4 2.4 0 0 1 12 9.6z"/>
</svg>